<?xml version="1.0" encoding="UTF-8" standalone="no" ?>
<!DOCTYPE svg PUBLIC "-//W3C//DTD SVG 1.1//EN" "http://www.w3.org/Graphics/SVG/1.1/DTD/svg11.dtd">
<svg xmlns="http://www.w3.org/2000/svg" xmlns:xlink="http://www.w3.org/1999/xlink" version="1.1" width="1080" height="1080" viewBox="0 0 1080 1080" xml:space="preserve">
<desc>Created with Fabric.js 5.2.4</desc>
<defs>
</defs>
<g transform="matrix(1 0 0 1 540 540)" id="21e47e8a-8e89-4d0e-bb5f-e1b9b4ffe6ff"  >
</g>
<g transform="matrix(1 0 0 1 540 540)" id="2a1d3358-cac2-4246-a8f0-7e4664cb3a59"  >
<rect style="stroke: none; stroke-width: 1; stroke-dasharray: none; stroke-linecap: butt; stroke-dashoffset: 0; stroke-linejoin: miter; stroke-miterlimit: 4; fill: rgb(255,255,255); fill-rule: nonzero; opacity: 1; visibility: hidden;" vector-effect="non-scaling-stroke"  x="-540" y="-540" rx="0" ry="0" width="1080" height="1080" />
</g>
<g transform="matrix(1 0 0 1 540 540)"  >
<path style="stroke: rgb(0,0,0); stroke-width: 0; stroke-dasharray: none; stroke-linecap: butt; stroke-dashoffset: 0; stroke-linejoin: miter; stroke-miterlimit: 4; fill: rgb(12,84,96); fill-rule: nonzero; opacity: 1;" vector-effect="non-scaling-stroke"  transform=" translate(-256, -256)" d="M 256 96 C 294.4 96 329.7 109.5 357.3 132.1 L 324.7 164.7 C 320.09999999999997 169.29999999999998 318.8 176.2 321.2 182.1 C 323.59999999999997 188 329.5 192 336 192 L 448 192 C 456.8 192 464 184.8 464 176 L 464 64 C 464 57.5 460.1 51.7 454.1 49.2 C 448.1 46.7 441.20000000000005 48.1 436.70000000000005 52.7 L 402.70000000000005 86.7 C 363.4 52.6 312.1 32 256 32 C 245.1 32 234.5 32.8 224 34.3 L 224 99.2 C 234.3 97.10000000000001 245 96 256 96 z M 132.1 154.7 L 164.7 187.29999999999998 C 169.29999999999998 191.89999999999998 176.2 193.2 182.1 190.79999999999998 C 188 188.39999999999998 192 182.49999999999997 192 175.99999999999997 L 192 64 C 192 55.2 184.8 48 176 48 L 64 48 C 57.5 48 51.7 51.9 49.2 57.9 C 46.7 63.9 48.1 70.8 52.7 75.3 L 86.7 109.3 C 52.6 148.6 32 199.9 32 256 C 32 266.9 32.8 277.5 34.3 288 L 99.2 288 C 97.10000000000001 277.7 96 267 96 256 C 96 217.6 109.5 182.3 132.1 154.7 z M 477.7 224 L 412.8 224 C 414.90000000000003 234.3 416 245 416 256 C 416 294.4 402.5 329.7 379.9 357.3 L 347.29999999999995 324.7 C 342.69999999999993 320.09999999999997 335.79999999999995 318.8 329.9 321.2 C 324 323.59999999999997 320 329.5 320 336 L 320 448 C 320 456.8 327.2 464 336 464 L 448 464 C 454.5 464 460.3 460.1 462.8 454.1 C 465.3 448.1 463.90000000000003 441.20000000000005 459.3 436.70000000000005 L 425.3 402.70000000000005 C 459.4 363.4 480 312.1 480 256 C 480 245.1 479.2 234.5 477.7 224 z M 256 416 C 217.6 416 182.3 402.5 154.7 379.9 L 187.29999999999998 347.29999999999995 C 191.89999999999998 342.69999999999993 193.2 335.79999999999995 190.79999999999998 329.9 C 188.39999999999998 324 182.49999999999997 320 175.99999999999997 320 L 64 320 C 55.2 320 48 327.2 48 336 L 48 448 C 48 454.5 51.9 460.3 57.9 462.8 C 63.9 465.3 70.8 463.90000000000003 75.3 459.3 L 109.3 425.3 C 148.6 459.4 199.9 480 256 480 C 266.9 480 277.5 479.2 288 477.7 L 288 412.8 C 277.7 414.90000000000003 267 416 256 416 z" stroke-linecap="round" />
</g>
<g transform="matrix(0 0 0 0 0 0)"  >
<g style=""   >
</g>
</g>
</svg>