<?xml version="1.0" encoding="UTF-8" standalone="no" ?>
<!DOCTYPE svg PUBLIC "-//W3C//DTD SVG 1.1//EN" "http://www.w3.org/Graphics/SVG/1.1/DTD/svg11.dtd">
<svg xmlns="http://www.w3.org/2000/svg" xmlns:xlink="http://www.w3.org/1999/xlink" version="1.1" width="1080" height="1080" viewBox="0 0 1080 1080" xml:space="preserve">
<desc>Created with Fabric.js 5.2.4</desc>
<defs>
</defs>
<rect x="0" y="0" width="100%" height="100%" fill="transparent"></rect>
<g transform="matrix(1 0 0 1 540 540)" id="cd6b775e-3b9c-40ce-a82f-5d7ba3851887"  >
</g>
<g transform="matrix(1 0 0 1 540 540)" id="70814603-ec1b-4294-94d1-83c15b0f3844"  >
<rect style="stroke: none; stroke-width: 1; stroke-dasharray: none; stroke-linecap: butt; stroke-dashoffset: 0; stroke-linejoin: miter; stroke-miterlimit: 4; fill: rgb(255,255,255); fill-rule: nonzero; opacity: 1; visibility: hidden;" vector-effect="non-scaling-stroke"  x="-540" y="-540" rx="0" ry="0" width="1080" height="1080" />
</g>
<g transform="matrix(1 0 0 1 522.4 532.18)"  >
<path style="stroke: rgb(0,0,0); stroke-width: 0; stroke-dasharray: none; stroke-linecap: butt; stroke-dashoffset: 0; stroke-linejoin: miter; stroke-miterlimit: 4; fill: rgb(12,84,96); fill-rule: nonzero; opacity: 1;" vector-effect="non-scaling-stroke"  transform=" translate(-224, -256)" d="M 448 80 L 448 128 C 448 172.2 347.7 208 224 208 C 100.30000000000001 208 0 172.2 0 128 L 0 80 C 0 35.8 100.3 0 224 0 C 347.7 0 448 35.8 448 80 z M 393.2 214.7 C 414 207.29999999999998 433.09999999999997 197.79999999999998 448 186.1 L 448 288 C 448 332.2 347.7 368 224 368 C 100.30000000000001 368 0 332.2 0 288 L 0 186.1 C 14.9 197.9 34 207.29999999999998 54.8 214.7 C 99.7 230.7 159.5 240 224 240 C 288.5 240 348.3 230.7 393.2 214.7 z M 0 346.1 C 14.9 357.90000000000003 34 367.3 54.8 374.70000000000005 C 99.7 390.7 159.5 400 224 400 C 288.5 400 348.3 390.7 393.2 374.7 C 414 367.3 433.09999999999997 357.8 448 346.09999999999997 L 448 432 C 448 476.2 347.7 512 224 512 C 100.30000000000001 512 0 476.2 0 432 L 0 346.1 z" stroke-linecap="round" />
</g>
<g transform="matrix(0.3 0 0 0.3 793.16 763.48)"  >
<path style="stroke: rgb(0,0,0); stroke-width: 1; stroke-dasharray: none; stroke-linecap: butt; stroke-dashoffset: 0; stroke-linejoin: miter; stroke-miterlimit: 4; fill: rgb(19,171,196); fill-rule: nonzero; opacity: 1;"  transform=" translate(-256, -256)" d="M 256 0 C 114.61510404331688 0 0 114.61510404331688 0 256 C 0 397.3848959566831 114.61510404331688 512 256 512 C 397.3848959566831 512 512 397.3848959566831 512 256 C 512 114.61510404331688 397.3848959566831 0 256 0 z M 376.9 294.6 L 269.8 394.5 C 266 398 261.1 400 256 400 C 250.89999999999998 400 245.9 398 242.2 394.5 L 135.1 294.6 C 130.6 290.40000000000003 128 284.5 128 278.3 C 128 266 138 256 150.3 256 L 208 256 L 208 160 C 208 142.3 222.3 128 240 128 L 272 128 C 289.7 128 304 142.3 304 160 L 304 256 L 361.7 256 C 374 256 384 266 384 278.3 C 384 284.5 381.4 290.40000000000003 376.9 294.6 z" stroke-linecap="round" />
</g>
<g transform="matrix(0 0 0 0 0 0)"  >
<g style=""   >
</g>
</g>
<g transform="matrix(0 0 0 0 0 0)"  >
<g style=""   >
</g>
</g>
<g transform="matrix(0 0 0 0 0 0)"  >
<g style=""   >
</g>
</g>
<g transform="matrix(0 0 0 0 0 0)"  >
<g style=""   >
</g>
</g>
</svg>