<?xml version="1.0" encoding="UTF-8" standalone="no" ?>
<!DOCTYPE svg PUBLIC "-//W3C//DTD SVG 1.1//EN" "http://www.w3.org/Graphics/SVG/1.1/DTD/svg11.dtd">
<svg xmlns="http://www.w3.org/2000/svg" xmlns:xlink="http://www.w3.org/1999/xlink" version="1.1" width="1080" height="1080" viewBox="0 0 1080 1080" xml:space="preserve">
<desc>Created with Fabric.js 5.2.4</desc>
<defs>
</defs>
<g transform="matrix(1 0 0 1 540 540)" id="0f7b1ac4-7ff7-4598-babf-4adbcc538f00"  >
<rect style="stroke: none; stroke-width: 1; stroke-dasharray: none; stroke-linecap: butt; stroke-dashoffset: 0; stroke-linejoin: miter; stroke-miterlimit: 4; fill: rgb(255,255,255); fill-rule: nonzero; opacity: 1; visibility: hidden;" vector-effect="non-scaling-stroke"  x="-540" y="-540" rx="0" ry="0" width="1080" height="1080" />
</g>
<g transform="matrix(1 0 0 1 540 540)" id="e271cc8d-0cca-46db-9658-f7c484e08b76"  >
</g>
<g transform="matrix(1 0 0 1 540 511.06)" id="3b0be651-2d62-43a7-9117-dbf364ca0aed"  >
<path style="stroke: rgb(0,0,0); stroke-width: 0; stroke-dasharray: none; stroke-linecap: butt; stroke-dashoffset: 0; stroke-linejoin: miter; stroke-miterlimit: 4; fill: rgb(12,84,96); fill-rule: nonzero; opacity: 1;" vector-effect="non-scaling-stroke"  transform=" translate(-288.01, -256)" d="M 160 0 C 142.3 0 128 14.3 128 32 C 128 49.7 142.3 64 160 64 L 210.7 64 L 9.4 265.4 C -3.0999999999999996 277.9 -3.0999999999999996 298.2 9.4 310.7 C 21.9 323.2 42.199999999999996 323.2 54.699999999999996 310.7 L 256 109.3 L 256 160 C 256 177.7 270.3 192 288 192 C 305.7 192 320 177.7 320 160 L 320 32 C 320 14.3 305.7 0 288 0 L 160 0 z M 576 80 C 576 53.49033200812191 554.5096679918781 32 528 32 C 501.4903320081219 32 480 53.49033200812191 480 80 C 480 106.50966799187809 501.4903320081219 128 528 128 C 554.5096679918781 128 576 106.50966799187809 576 80 z M 448 208 C 448 181.49033200812192 426.5096679918781 160 400 160 C 373.4903320081219 160 352 181.4903320081219 352 208 C 352 234.50966799187808 373.4903320081219 256 400 256 C 426.5096679918781 256 448 234.50966799187808 448 208 z M 400 384 C 426.5096679918781 384 448 362.5096679918781 448 336 C 448 309.4903320081219 426.5096679918781 288 400 288 C 373.4903320081219 288 352 309.4903320081219 352 336 C 352 362.5096679918781 373.4903320081219 384 400 384 z M 448 464 C 448 437.4903320081219 426.5096679918781 416 400 416 C 373.4903320081219 416 352 437.4903320081219 352 464 C 352 490.5096679918781 373.4903320081219 512 400 512 C 426.5096679918781 512 448 490.5096679918781 448 464 z M 576 464 C 576 437.4903320081219 554.5096679918781 416 528 416 C 501.4903320081219 416 480 437.4903320081219 480 464 C 480 490.5096679918781 501.4903320081219 512 528 512 C 554.5096679918781 512 576 490.5096679918781 576 464 z M 272 384 C 298.5096679918781 384 320 362.5096679918781 320 336 C 320 309.4903320081219 298.5096679918781 288 272 288 C 245.49033200812192 288 224 309.4903320081219 224 336 C 224 362.5096679918781 245.49033200812192 384 272 384 z M 320 464 C 320 437.4903320081219 298.5096679918781 416 272 416 C 245.49033200812192 416 224 437.4903320081219 224 464 C 224 490.5096679918781 245.49033200812192 512 272 512 C 298.5096679918781 512 320 490.5096679918781 320 464 z M 144 512 C 170.50966799187808 512 192 490.5096679918781 192 464 C 192 437.4903320081219 170.50966799187808 416 144 416 C 117.49033200812191 416 96 437.4903320081219 96 464 C 96 490.5096679918781 117.49033200812191 512 144 512 z M 576 336 C 576 309.4903320081219 554.5096679918781 288 528 288 C 501.4903320081219 288 480 309.4903320081219 480 336 C 480 362.5096679918781 501.4903320081219 384 528 384 C 554.5096679918781 384 576 362.5096679918781 576 336 z M 528 256 C 554.5096679918781 256 576 234.50966799187808 576 208 C 576 181.49033200812192 554.5096679918781 160 528 160 C 501.4903320081219 160 480 181.49033200812192 480 208 C 480 234.50966799187808 501.4903320081219 256 528 256 z" stroke-linecap="round" />
</g>
<g transform="matrix(NaN NaN NaN NaN 0 0)"  >
<g style=""   >
</g>
</g>
<g transform="matrix(NaN NaN NaN NaN 0 0)"  >
<g style=""   >
</g>
</g>
</svg>