<?xml version="1.0" encoding="UTF-8" standalone="no" ?>
<!DOCTYPE svg PUBLIC "-//W3C//DTD SVG 1.1//EN" "http://www.w3.org/Graphics/SVG/1.1/DTD/svg11.dtd">
<svg xmlns="http://www.w3.org/2000/svg" xmlns:xlink="http://www.w3.org/1999/xlink" version="1.1" width="1080" height="1080" viewBox="0 0 1080 1080" xml:space="preserve">
<desc>Created with Fabric.js 5.2.4</desc>
<defs>
</defs>
<g transform="matrix(1 0 0 1 540 540)" id="529e480d-fae5-4c7e-988f-d703e13bf372"  >
</g>
<g transform="matrix(1 0 0 1 540 540)" id="7816a50f-9366-4240-ad86-98003951172c"  >
<rect style="stroke: none; stroke-width: 1; stroke-dasharray: none; stroke-linecap: butt; stroke-dashoffset: 0; stroke-linejoin: miter; stroke-miterlimit: 4; fill: rgb(255,255,255); fill-rule: nonzero; opacity: 1; visibility: hidden;" vector-effect="non-scaling-stroke"  x="-540" y="-540" rx="0" ry="0" width="1080" height="1080" />
</g>
<g transform="matrix(0 0 0 0 0 0)"  >
<g style=""   >
</g>
</g>
<g transform="matrix(0 0 0 0 0 0)"  >
<g style=""   >
</g>
</g>
<g transform="matrix(0 0 0 0 0 0)"  >
<g style=""   >
</g>
</g>
<g transform="matrix(0 0 0 0 0 0)"  >
<g style=""   >
</g>
</g>
<g transform="matrix(0 0 0 0 0 0)"  >
<g style=""   >
</g>
</g>
<g transform="matrix(1.64 0 0 1.64 158.59 230.27)"  >
<rect style="stroke: none; stroke-width: 1; stroke-dasharray: none; stroke-linecap: butt; stroke-dashoffset: 0; stroke-linejoin: miter; stroke-miterlimit: 4; fill: rgb(255,255,255); fill-rule: nonzero; opacity: 1; visibility: hidden;" vector-effect="non-scaling-stroke"  x="-540" y="-540" rx="0" ry="0" width="1080" height="1080" />
</g>
<g transform="matrix(29.76 0 0 29.76 514.62 540)"  >
<path style="stroke: rgb(0,0,0); stroke-width: 0; stroke-dasharray: none; stroke-linecap: butt; stroke-dashoffset: 0; stroke-linejoin: miter; stroke-miterlimit: 4; fill: rgb(12,84,96); fill-rule: nonzero; opacity: 1;" vector-effect="non-scaling-stroke"  transform=" translate(-12.5, -12)" d="M 7.50049 7.49951 C 7.50049 4.742509999999999 9.74349 2.49951 12.500499999999999 2.49951 C 15.257499999999999 2.49951 17.5005 4.742509999999999 17.5005 7.49951 C 17.5005 10.256499999999999 15.257499999999999 12.499500000000001 12.500499999999999 12.499500000000001 C 9.743489999999998 12.499500000000001 7.500489999999999 10.2565 7.500489999999999 7.499510000000001 z M 16.6175 13.570599999999999 C 16.0585 13.4286 15.4505 13.5086 14.9475 13.788599999999999 C 13.429499999999999 14.632599999999998 11.5715 14.632599999999998 10.0535 13.788599999999999 C 9.55147 13.509599999999999 8.94248 13.430599999999998 8.383479999999999 13.570599999999999 C 6.391479999999999 14.073599999999999 5.000489999999999 15.881599999999999 5.000489999999999 17.9666 L 5.000489999999999 18.9775 C 5.000489999999999 19.6155 5.170469999999999 20.2394 5.493469999999999 20.7834 C 5.756469999999999 21.2254 6.249499999999999 21.5005 6.778499999999999 21.5005 L 18.2215 21.5005 C 18.7505 21.5005 19.243499999999997 21.226499999999998 19.5065 20.7825 C 19.8295 20.2395 19.999499999999998 19.615499999999997 19.999499999999998 18.9775 L 19.999499999999998 17.9666 C 20.0005 15.881599999999999 18.609499999999997 14.073599999999999 16.617499999999996 13.570599999999999 z" stroke-linecap="round" />
</g>
<g transform="matrix(10.02 0 0 10.02 818.83 436.29)"  >
<path style="stroke: rgb(0,0,0); stroke-width: 0; stroke-dasharray: none; stroke-linecap: butt; stroke-dashoffset: 0; stroke-linejoin: miter; stroke-miterlimit: 4; fill: rgb(12,84,96); fill-rule: nonzero; opacity: 1;" vector-effect="non-scaling-stroke"  transform=" translate(-12, -12)" d="M 21.5 7.50098 L 21.5 13.501000000000001 C 21.5 15.982000000000001 19.481 18.001 17 18.001 L 6.82901 18.001 C 6.4280100000000004 18.001 6.05201 18.1569 5.76801 18.4399 L 3.354 20.854000000000003 C 3.258 20.950000000000003 3.13 21.000000000000004 3 21.000000000000004 C 2.936 21.000000000000004 2.87099 20.986900000000002 2.80899 20.961900000000004 C 2.6219900000000003 20.884900000000002 2.5 20.702000000000005 2.5 20.500000000000004 L 2.5 7.5000000000000036 C 2.5 5.019000000000004 4.519 3.0000000000000036 7 3.0000000000000036 L 17 3.0000000000000036 C 19.481 3.0010000000000034 21.5 5.019980000000004 21.5 7.500980000000004 z" stroke-linecap="round" />
</g>
<g transform="matrix(1 0 0 1 50 50)"  >
<rect style="stroke: none; stroke-width: 1; stroke-dasharray: none; stroke-linecap: butt; stroke-dashoffset: 0; stroke-linejoin: miter; stroke-miterlimit: 4; fill: rgb(255,255,255); fill-opacity: 0; fill-rule: nonzero; opacity: 1;" vector-effect="non-scaling-stroke"  x="-50" y="-50" rx="0" ry="0" width="100" height="100" />
</g>
<g transform="matrix(1 0 0 1 540 540)"  >
<rect style="stroke: none; stroke-width: 1; stroke-dasharray: none; stroke-linecap: butt; stroke-dashoffset: 0; stroke-linejoin: miter; stroke-miterlimit: 4; fill: rgb(255,255,255); fill-rule: nonzero; opacity: 1; visibility: hidden;" vector-effect="non-scaling-stroke"  x="-540" y="-540" rx="0" ry="0" width="1080" height="1080" />
</g>
</svg>