<svg fill="none" height="24" viewBox="0 0 24 24" width="24" xmlns="http://www.w3.org/2000/svg"><path d="m6.27002 4.50305 9.45998 4.39203-2.53 1.12322c-.72.3309-1.69.3209-2.4.01l-7.55-3.41933c.48-.70194 1.17998-1.28371 2.03998-1.66476zm12.43998.44116-4.39-1.95536c-1.45-.6518-3.19-.6518-4.64001 0l-1.58996.70189 9.44997 4.38224 3.21-1.46401c-.48-.70194-1.18-1.28371-2.04-1.66476zm-16.08 3.02839c-.09.33092-.13.67188-.13 1.02285v6.05675c0 1.7348 1.06998 3.2892 2.78998 4.0513l4.40002 1.9553c.49.2307 1.02.371 1.56.4412v-9.7871c-.37-.0601-.73-.1705-1.06-.3109zm18.74 0-7.56 3.4294c-.33.1404-.69.2508-1.06.3109v9.7871c.54-.0702 1.07-.2105 1.57-.4412l4.39-1.9553c1.72-.7621 2.79-2.3165 2.79-4.0513v-6.05675c0-.35097-.04-.69193-.13-1.02285z" fill="#41416e"/></svg>