<svg fill="none" height="24" viewBox="0 0 25 24" width="25" xmlns="http://www.w3.org/2000/svg"><path d="m7.50049 7.49951c0-2.757 2.243-5 5.00001-5 2.757 0 5 2.243 5 5 0 2.75699-2.243 4.99999-5 4.99999-2.75701 0-5.00001-2.243-5.00001-4.99999zm9.11701 6.07109c-.559-.142-1.167-.062-1.67.218-1.518.844-3.376.844-4.894 0-.50203-.279-1.11102-.358-1.67002-.218-1.992.503-3.38299 2.311-3.38299 4.396v1.0109c0 .638.16998 1.2619.49298 1.8059.263.442.75603.7171 1.28503.7171h11.443c.529 0 1.022-.274 1.285-.718.323-.543.493-1.167.493-1.805v-1.0109c.001-2.085-1.39-3.893-3.382-4.396z" fill="#41416e"/></svg>